<svg xmlns="http://www.w3.org/2000/svg" viewBox="0 0 1000 1000" aria-label="Yoinko">
  <title>Yoinko</title>
  <rect x="0" y="0" width="1000" height="1000" rx="190" ry="190" fill="#FF5A36"/>
  <g transform="translate(106.3 589.8) scale(0.680 -0.680)">
    <path transform="translate(0 0)" d="M189 -214Q140 -192 132.0 -165.5Q124 -139 145 -96L388 448Q409 495 433.0 504.0Q457 513 507 493Q555 471 563.5 446.0Q572 421 553 379L308 -170Q288 -217 263.5 -226.5Q239 -236 189 -214ZM270 6 32 366Q6 406 11.0 432.5Q16 459 59 486Q106 515 131.5 508.5Q157 502 184 461L346 216Z" fill="#FFF4E6"/>
    <path transform="translate(541 0)" d="M280 -18Q234 -18 187.0 0.5Q140 19 100.5 53.5Q61 88 37.5 136.5Q14 185 14 245Q14 300 35.0 348.0Q56 396 92.5 432.5Q129 469 176.5 490.0Q224 511 278 511Q352 511 412.0 475.5Q472 440 508.0 380.0Q544 320 544 246Q544 183 520.0 134.0Q496 85 457.0 51.0Q418 17 371.5 -0.5Q325 -18 280 -18ZM278 165Q293 165 312.5 172.5Q332 180 346.5 198.0Q361 216 361 247Q361 272 350.5 290.0Q340 308 321.0 318.0Q302 328 277 328Q255 328 237.0 317.5Q219 307 208.0 288.5Q197 270 197 246Q197 216 211.0 198.0Q225 180 244.0 172.5Q263 165 278 165Z" fill="#FFF4E6"/>
  </g>
  <g transform="translate(780 240) scale(7.00)">
    <path d="M 0 -9 Q 1.8 -1.8 9 0 Q 1.8 1.8 0 9 Q -1.8 1.8 -9 0 Q -1.8 -1.8 0 -9 Z" fill="#FFCF52"/>
  </g>
</svg>