<?xml version="1.0" encoding="UTF-8" standalone="no"?>
<!DOCTYPE svg PUBLIC "-//W3C//DTD SVG 1.1//EN" "http://www.w3.org/Graphics/SVG/1.1/DTD/svg11.dtd">
<svg xmlns="http://www.w3.org/2000/svg" version="1.1" viewBox="330 85 640 595">

<path d="M 390.16 99.71 C 404.08 104.36 417.78 109.43 431.56 114.46 C 450.26 121.06 468.93 127.69 487.57 134.48 C 489.28 135.15 490.72 135.84 490.58 137.98 C 490.08 143.35 488.12 148.65 486.71 153.84 C 482.01 170.18 475.66 185.93 468.31 201.24 C 479.88 201.39 490.97 209.21 494.86 220.12 C 496.48 224.55 496.16 228.75 496.28 233.36 C 503.79 234.70 510.87 238.84 514.02 246.05 C 517.10 253.21 515.90 260.71 513.60 267.88 C 512.97 270.25 511.69 273.07 512.70 275.47 C 514.74 280.86 518.15 285.84 521.64 290.39 C 530.50 301.50 541.63 310.77 555.43 314.89 C 558.58 300.12 560.92 284.56 565.17 270.12 C 570.83 250.67 579.77 232.28 592.22 216.26 C 611.01 191.85 637.49 173.94 666.90 164.94 C 698.58 155.14 733.20 154.50 765.49 161.69 C 792.55 167.65 818.35 179.45 839.45 197.57 C 849.83 207.08 859.86 217.68 867.34 229.65 C 882.35 254.01 890.69 282.37 890.92 311.00 C 891.50 324.68 890.72 338.31 890.88 352.00 C 891.10 354.45 889.92 358.27 891.90 360.07 C 896.53 365.47 901.23 370.81 905.67 376.36 C 926.96 402.59 944.10 433.35 953.11 466.00 C 958.44 485.92 961.61 507.43 959.32 528.02 C 958.02 538.01 955.30 548.45 946.98 554.94 C 944.07 557.53 940.07 557.97 937.02 560.02 C 933.74 564.67 930.43 568.81 924.88 570.86 C 919.42 573.10 914.32 571.91 908.90 570.34 C 905.93 573.21 903.01 575.81 898.90 576.88 C 891.43 579.12 883.03 575.38 879.50 568.49 C 876.84 563.46 877.16 558.44 877.56 552.96 C 874.00 557.29 870.79 561.83 866.82 565.82 C 863.29 569.69 859.20 572.87 855.34 576.36 C 853.66 577.65 854.32 579.17 854.35 581.00 C 855.65 593.00 856.86 605.01 858.28 617.00 C 858.55 618.76 858.64 620.90 859.55 622.47 C 862.20 624.56 865.40 625.78 867.92 628.11 C 872.84 632.58 877.64 637.24 879.43 643.87 C 880.84 649.17 880.78 655.70 877.21 660.19 C 873.94 664.37 868.48 666.15 863.50 667.33 C 852.20 669.99 841.52 669.45 830.00 669.47 C 817.97 669.56 805.90 668.18 794.13 665.76 C 788.35 664.42 782.54 663.13 778.16 658.83 C 774.52 655.13 771.88 650.24 769.21 645.80 C 761.63 632.65 753.98 619.54 746.37 606.41 C 727.14 607.40 707.91 606.86 688.69 605.79 C 687.56 617.85 687.05 629.98 685.70 642.02 C 685.09 646.99 684.13 651.77 680.43 655.42 C 676.67 659.04 670.97 660.82 666.00 662.01 C 649.59 665.79 631.79 666.10 615.00 665.93 C 605.81 665.43 595.70 665.44 587.04 661.99 C 582.45 660.19 578.55 656.88 577.14 652.02 C 575.69 646.57 577.26 640.80 580.06 636.05 C 583.34 630.39 588.19 626.48 593.62 623.02 C 587.48 605.98 581.84 588.75 576.21 571.53 C 575.60 569.17 573.74 568.47 571.98 567.07 C 558.19 557.27 546.39 544.86 537.68 530.33 C 527.73 513.91 522.01 495.19 521.18 476.00 C 519.85 456.92 521.91 437.53 526.69 419.01 C 526.92 417.48 527.96 415.44 527.40 413.96 C 522.69 411.48 517.70 409.53 513.01 406.99 C 484.20 392.43 459.56 370.45 440.61 344.42 C 428.80 328.05 419.42 309.96 411.60 291.39 C 410.36 287.98 407.82 286.13 405.42 283.58 C 399.34 277.39 392.90 271.34 387.48 264.55 C 382.96 258.58 379.07 250.67 380.12 242.99 C 381.10 235.95 386.70 229.96 394.00 229.60 C 401.32 229.27 408.93 234.03 413.61 239.35 C 413.67 237.18 413.52 235.12 413.12 232.98 C 412.16 227.50 411.86 222.02 411.38 216.49 C 390.09 208.08 369.04 199.05 347.83 190.44 C 345.94 189.52 342.28 188.30 341.83 185.99 C 342.07 183.71 344.52 181.66 345.95 179.97 C 363.76 161.82 373.81 138.57 381.63 114.76 C 383.22 110.24 384.08 105.38 385.99 100.99 C 386.71 99.31 388.60 99.05 390.16 99.71 Z" fill="#1a1e3c" />
<path d="M 391.52 108.19 C 395.81 109.37 399.84 111.42 404.10 112.75 C 426.56 120.46 448.75 128.90 471.16 136.75 C 474.93 138.09 478.73 139.24 482.42 140.81 C 475.77 165.46 466.67 191.06 452.33 212.35 C 451.37 213.85 450.29 215.13 448.99 216.34 C 447.65 206.83 451.18 198.55 445.82 190.17 C 441.05 181.63 428.99 181.01 421.86 186.83 C 415.29 192.43 413.09 200.05 411.98 208.32 C 407.27 206.90 402.72 204.63 398.17 202.74 C 383.15 196.46 367.88 190.62 353.05 183.93 C 364.68 171.31 373.84 156.20 380.40 140.38 C 384.59 129.76 388.97 119.36 391.52 108.19 Z" fill="#f5bd4d" />
<path d="M 756.99 170.27 C 785.17 176.04 811.63 186.75 833.33 206.03 C 830.47 205.30 828.48 203.44 826.08 201.87 C 810.75 192.17 793.74 185.55 776.02 181.77 C 740.91 173.43 703.05 174.89 668.96 186.94 C 657.27 191.82 644.74 197.02 634.44 204.44 C 626.60 209.97 618.30 215.68 611.59 222.59 C 606.28 228.38 600.82 233.86 596.50 240.48 C 591.60 246.90 587.09 253.50 583.80 260.91 C 579.82 270.01 575.62 278.36 573.06 287.99 C 570.99 295.98 569.08 304.02 566.89 311.97 C 568.36 302.42 570.18 292.92 572.39 283.51 C 575.81 268.26 581.34 253.51 588.72 239.73 C 595.98 226.90 605.31 215.14 616.18 205.18 C 636.99 186.32 663.13 174.34 690.72 169.55 C 712.60 165.96 735.18 166.33 756.99 170.27 Z" fill="#fc9473" />
<path d="M 776.02 181.77 C 793.74 185.55 810.75 192.17 826.08 201.87 C 828.48 203.44 830.47 205.30 833.33 206.03 C 842.61 213.54 850.41 223.09 857.17 232.89 C 865.45 244.80 870.59 257.91 874.89 271.68 C 878.18 283.48 879.76 295.47 880.52 307.68 C 881.09 325.10 880.45 342.58 880.51 360.00 C 880.48 361.67 881.13 363.07 881.76 364.56 C 882.73 368.15 885.91 370.87 888.08 373.95 C 900.22 389.16 908.96 405.67 918.48 422.54 C 928.04 441.36 936.17 461.28 941.42 481.74 C 944.02 493.61 946.17 505.85 946.25 518.00 C 946.43 523.69 945.61 529.32 945.67 535.00 C 945.62 536.27 945.97 537.49 946.73 538.67 C 945.58 541.85 943.63 544.47 941.32 546.90 C 942.01 541.81 942.88 537.11 942.29 531.92 C 941.29 528.78 938.59 527.59 935.49 528.63 C 933.55 529.77 932.74 531.78 932.74 533.98 C 932.62 541.07 931.52 547.96 928.46 554.41 C 925.47 554.16 922.84 554.83 920.56 552.44 C 918.12 550.35 918.56 547.75 918.35 544.84 C 918.34 542.09 919.50 538.01 916.97 536.06 C 915.43 534.41 913.87 534.93 911.83 534.81 C 910.47 536.42 909.17 537.76 909.03 539.98 C 908.51 544.86 907.85 549.57 906.09 554.18 C 902.51 555.05 899.42 556.18 896.00 553.99 C 892.20 551.23 890.72 545.39 889.31 541.14 C 889.17 543.94 889.18 546.66 888.12 549.31 C 888.28 544.55 888.58 539.73 888.17 534.99 C 887.81 532.46 887.63 530.13 885.30 528.61 C 883.26 527.91 881.34 527.98 879.65 529.43 C 878.63 525.86 879.93 521.70 880.00 518.00 C 881.64 496.07 876.33 474.29 866.12 454.94 C 862.01 447.25 856.61 440.61 851.01 433.99 C 849.84 432.49 848.38 431.83 846.64 431.21 C 844.93 428.70 843.30 425.93 841.09 423.84 C 838.15 421.27 832.66 423.99 833.27 428.01 C 833.62 431.43 836.95 434.49 838.47 437.57 C 838.03 440.38 838.02 443.17 838.19 446.00 C 839.08 465.12 834.70 484.21 826.41 501.39 C 819.26 515.70 808.84 528.45 796.08 538.12 C 791.33 541.74 786.04 545.99 780.27 547.72 C 783.43 530.06 780.84 511.03 775.51 494.01 C 766.52 467.36 749.10 443.75 725.13 428.75 C 706.20 416.49 683.61 409.64 661.00 410.38 C 646.74 410.67 632.76 413.73 619.83 419.78 C 602.38 427.59 587.09 440.93 577.43 457.47 C 566.59 477.06 561.66 499.67 565.10 521.94 L 564.67 523.98 C 558.74 520.98 553.83 515.44 549.59 510.42 C 546.14 506.47 543.18 502.18 540.16 497.90 C 537.58 494.26 535.67 490.32 532.71 486.94 C 530.74 477.55 531.07 468.54 531.12 459.00 C 531.46 438.33 537.10 418.66 543.31 399.12 C 550.41 378.97 557.65 359.58 561.71 338.50 C 563.78 329.72 564.82 320.74 566.89 311.97 C 569.08 304.02 570.99 295.98 573.06 287.99 C 575.62 278.36 579.82 270.01 583.80 260.91 C 587.09 253.50 591.60 246.90 596.50 240.48 C 600.82 233.86 606.28 228.38 611.59 222.59 C 618.30 215.68 626.60 209.97 634.44 204.44 C 644.74 197.02 657.27 191.82 668.96 186.94 C 703.05 174.89 740.91 173.43 776.02 181.77 Z" fill="#fe643b" />
<path d="M 436.91 195.11 C 439.02 197.67 438.72 200.88 438.70 204.00 C 438.39 210.39 438.33 216.75 439.23 223.10 C 438.81 222.09 438.54 221.07 438.42 220.02 C 438.17 213.38 438.84 206.60 438.13 200.00 C 437.65 198.56 437.10 196.30 435.07 197.14 C 430.08 198.77 428.09 204.25 426.77 208.83 C 425.23 215.00 423.68 221.63 423.94 228.00 C 423.98 230.39 423.85 232.77 423.73 235.16 C 421.66 225.74 420.60 215.54 422.33 205.99 C 423.08 201.82 424.85 196.99 428.45 194.46 C 430.97 192.63 434.83 192.60 436.91 195.11 Z" fill="#fc9473" />
<path d="M 435.07 197.14 C 437.10 196.30 437.65 198.56 438.13 200.00 C 438.84 206.60 438.17 213.38 438.42 220.02 C 438.54 221.07 438.81 222.09 439.23 223.10 C 441.05 230.05 442.48 236.97 445.29 243.78 C 446.12 245.64 447.75 247.71 450.00 247.59 C 452.61 247.77 455.02 245.70 454.85 243.00 C 454.61 238.92 452.31 235.06 451.59 231.00 C 451.39 229.34 450.58 227.29 451.89 225.92 C 454.46 222.62 457.16 219.43 459.55 215.98 C 462.95 216.03 466.85 215.56 470.01 216.94 C 477.23 219.94 482.36 225.63 486.11 232.35 C 483.99 235.80 480.19 236.36 476.52 235.33 C 472.48 233.17 470.07 228.53 466.09 226.47 C 462.48 225.76 459.75 228.47 460.61 232.08 C 462.27 235.92 466.13 239.06 468.99 242.05 C 467.27 244.52 465.18 246.95 464.56 249.96 C 464.12 252.28 464.11 254.70 464.45 257.02 C 464.81 259.40 466.71 261.54 466.85 263.90 C 462.03 268.34 458.32 273.25 457.69 279.99 C 457.63 282.75 457.17 285.70 459.09 287.96 C 460.38 289.95 463.61 289.81 465.09 288.10 C 466.94 286.40 466.27 284.26 466.49 282.00 C 466.35 276.74 469.69 271.63 474.96 270.44 C 478.37 269.96 482.00 270.29 485.43 270.31 C 482.32 269.98 479.25 270.23 476.15 269.77 C 483.30 269.64 489.68 270.59 495.60 265.59 C 498.15 263.30 497.97 259.74 495.08 257.86 C 491.87 256.13 489.06 258.57 486.03 259.45 C 482.07 260.20 478.11 260.35 475.11 257.22 C 476.73 254.35 478.42 251.91 481.55 250.55 C 487.33 247.77 495.82 246.77 501.33 250.67 C 504.18 252.55 504.89 255.36 505.89 258.44 C 504.75 265.28 501.00 270.17 502.50 277.44 C 500.61 280.33 501.98 284.92 503.00 287.96 C 508.05 300.17 517.50 311.89 529.80 317.29 C 534.06 318.88 538.66 320.90 543.22 321.06 L 544.05 321.39 C 543.41 322.88 542.93 324.36 542.64 325.96 C 540.80 336.42 537.98 346.59 533.09 356.06 C 529.95 362.38 525.44 368.55 519.57 372.56 C 514.90 375.85 508.78 375.70 503.44 374.53 C 490.29 371.11 478.71 362.09 468.25 353.74 C 461.69 348.59 456.22 342.47 450.86 336.12 C 446.93 332.29 443.88 327.60 439.63 324.14 C 432.18 312.88 426.60 300.18 421.16 287.85 C 419.82 284.99 418.06 282.38 415.95 280.03 C 410.05 273.63 403.37 267.93 397.61 261.41 C 398.04 256.59 393.21 251.49 394.35 246.24 C 395.18 243.11 397.59 242.50 400.20 241.26 C 407.90 246.32 414.50 252.58 421.57 258.41 C 423.65 260.30 427.09 260.06 428.70 257.67 C 430.29 255.80 429.40 253.07 428.57 251.06 C 426.42 245.93 424.76 240.63 423.73 235.16 C 423.85 232.77 423.98 230.39 423.94 228.00 C 423.68 221.63 425.23 215.00 426.77 208.83 C 428.09 204.25 430.08 198.77 435.07 197.14 Z" fill="#fe643b" />
<path d="M 463.94 211.81 C 469.69 210.78 475.68 212.00 480.22 215.77 C 485.05 219.68 487.77 226.21 486.11 232.35 C 482.36 225.63 477.23 219.94 470.01 216.94 C 466.85 215.56 462.95 216.03 459.55 215.98 C 460.74 214.52 461.94 212.17 463.94 211.81 Z" fill="#fc9473" />
<path d="M 629.20 230.38 C 639.20 228.26 650.04 230.80 658.36 236.66 C 665.12 241.12 670.20 248.12 673.31 255.51 C 678.00 266.92 677.86 280.36 673.63 291.89 C 667.71 307.92 652.47 320.47 635.00 320.67 C 618.39 321.22 603.33 309.95 597.10 294.93 C 590.70 278.66 593.23 259.03 604.39 245.41 C 610.53 237.56 619.42 232.26 629.20 230.38 Z" fill="#1a1e3c" />
<path d="M 761.02 237.79 C 772.74 236.08 784.47 238.94 794.04 245.90 C 802.58 251.94 808.37 261.04 811.00 271.09 C 816.24 289.42 808.30 310.85 792.41 321.39 C 784.98 326.52 776.02 329.27 767.00 329.39 C 757.34 329.11 747.54 326.12 739.82 320.21 C 726.77 310.30 719.80 293.20 722.25 276.98 C 725.16 257.26 740.82 240.13 761.02 237.79 Z" fill="#1a1e3c" />
<path d="M 394.11 239.51 C 396.52 239.00 398.21 240.13 400.20 241.26 C 397.59 242.50 395.18 243.11 394.35 246.24 C 393.21 251.49 398.04 256.59 397.61 261.41 C 393.98 257.15 390.32 251.72 389.83 246.01 C 389.66 243.05 391.09 240.24 394.11 239.51 Z" fill="#fc9473" />
<path d="M 627.49 239.58 C 632.51 238.15 637.92 237.85 643.03 239.07 C 653.97 241.68 662.75 250.34 666.14 260.99 C 671.40 276.47 666.78 294.62 654.01 305.03 C 643.50 313.54 627.56 314.65 616.58 306.39 C 605.99 298.40 600.84 285.07 602.31 271.99 C 603.71 257.49 613.18 243.80 627.49 239.58 Z" fill="#ffefda" />
<path d="M 493.01 243.17 C 497.27 243.15 501.90 245.14 504.23 248.82 C 506.08 251.71 506.46 255.09 505.89 258.44 C 504.89 255.36 504.18 252.55 501.33 250.67 C 495.82 246.77 487.33 247.77 481.55 250.55 C 478.42 251.91 476.73 254.35 475.11 257.22 C 474.06 254.63 473.97 251.96 475.62 249.60 C 477.31 246.87 480.71 246.55 483.50 245.63 C 486.68 244.81 489.80 243.06 493.01 243.17 Z" fill="#fc9473" />
<path d="M 762.11 246.13 C 771.76 244.82 782.08 247.07 789.72 253.27 C 801.55 262.37 806.89 278.51 802.78 292.87 C 799.03 307.23 786.87 318.63 772.01 320.52 C 756.92 322.89 741.82 314.49 734.77 301.18 C 730.11 292.32 729.36 281.64 732.26 272.10 C 736.10 258.82 748.25 247.77 762.11 246.13 Z" fill="#ffefda" />
<path d="M 656.11 256.85 C 663.15 262.47 665.41 272.44 663.87 281.01 C 662.30 290.07 655.34 298.57 646.03 300.21 C 637.87 301.60 630.09 296.88 625.97 290.02 C 621.64 282.65 621.60 273.60 625.07 265.88 C 627.07 269.41 629.51 271.98 633.90 271.57 C 639.06 271.06 641.83 265.74 639.94 261.05 C 638.68 258.05 636.17 257.03 633.21 256.31 C 639.99 251.25 649.56 251.55 656.11 256.85 Z" fill="#1a1e3c" />
<path d="M 769.80 263.20 C 778.45 269.49 780.44 282.40 776.93 292.00 C 774.30 299.88 767.35 306.08 759.00 307.04 C 750.96 308.04 743.17 303.54 739.26 296.59 C 734.98 289.27 734.91 280.44 738.00 272.66 C 740.40 275.99 742.41 278.82 747.01 278.62 C 752.82 278.22 755.59 271.12 752.42 266.55 C 750.83 264.26 748.58 263.98 746.05 263.35 C 752.79 257.66 762.92 257.90 769.80 263.20 Z" fill="#1a1e3c" />
<path d="M 502.50 277.44 C 510.07 296.83 525.18 311.25 543.22 321.06 C 538.66 320.90 534.06 318.88 529.80 317.29 C 517.50 311.89 508.05 300.17 503.00 287.96 C 501.98 284.92 500.61 280.33 502.50 277.44 Z" fill="#fc9473" />
<path d="M 392.92 292.76 C 394.79 292.62 395.45 293.29 395.94 294.98 C 397.71 301.42 399.16 307.90 401.61 314.14 C 405.93 325.14 411.88 335.36 420.00 344.00 C 421.97 346.28 424.51 348.40 425.95 351.06 C 426.22 353.69 423.61 355.72 421.36 353.63 C 404.88 339.68 394.78 319.20 391.09 298.14 C 390.78 296.20 390.51 293.40 392.92 292.76 Z" fill="#1a1e3c" />
<path d="M 582.32 313.41 C 590.62 310.91 600.43 313.53 606.97 319.08 C 610.32 321.91 612.70 326.60 610.79 330.92 C 608.98 335.08 604.21 336.61 600.01 336.69 C 592.93 336.96 585.42 334.59 580.02 329.94 C 577.35 327.56 574.87 323.67 575.59 319.96 C 576.36 316.55 579.10 314.39 582.32 313.41 Z" fill="#ffefda" />
<path d="M 383.38 314.56 C 384.69 316.39 385.35 318.83 386.10 320.95 C 387.41 325.00 389.21 328.88 391.60 332.42 C 393.39 335.23 395.88 337.54 397.63 340.35 C 398.54 342.99 395.77 344.92 393.53 343.45 C 385.84 337.56 381.88 328.68 379.63 319.49 C 379.40 318.25 379.12 316.69 379.63 315.50 C 380.61 314.26 381.91 313.85 383.38 314.56 Z" fill="#1a1e3c" />
<path d="M 544.05 321.39 C 547.26 322.67 550.51 323.85 553.69 325.20 C 549.32 353.00 539.75 377.48 530.65 403.87 C 523.95 401.47 517.56 398.12 511.36 394.63 C 501.67 388.93 492.08 382.79 483.36 375.66 C 465.99 361.05 451.06 343.78 439.63 324.14 C 443.88 327.60 446.93 332.29 450.86 336.12 C 456.22 342.47 461.69 348.59 468.25 353.74 C 478.71 362.09 490.29 371.11 503.44 374.53 C 508.78 375.70 514.90 375.85 519.57 372.56 C 525.44 368.55 529.95 362.38 533.09 356.06 C 537.98 346.59 540.80 336.42 542.64 325.96 C 542.93 324.36 543.41 322.88 544.05 321.39 Z" fill="#de4d2c" />
<path d="M 723.89 324.94 C 728.47 323.32 732.68 328.81 729.80 332.77 C 718.34 346.78 698.84 353.50 681.16 349.54 C 672.95 347.56 665.36 343.58 659.24 337.74 C 657.42 335.97 656.78 333.46 658.26 331.24 C 659.91 328.45 664.13 328.58 666.26 330.73 C 671.79 335.58 678.16 339.15 685.52 340.18 C 695.42 341.41 705.52 339.56 713.76 333.77 C 717.57 331.27 720.40 327.77 723.89 324.94 Z" fill="#1a1e3c" />
<path d="M 801.08 327.99 C 805.62 327.01 810.42 326.98 815.01 327.52 C 819.74 328.32 824.73 330.22 827.24 334.58 C 828.17 337.07 828.15 340.34 826.58 342.59 C 824.29 346.19 820.56 348.22 816.63 349.57 C 810.98 351.49 804.89 351.94 798.99 351.21 C 794.80 350.59 790.14 349.04 787.63 345.39 C 785.76 342.87 785.81 339.12 787.55 336.54 C 790.53 331.75 795.77 329.28 801.08 327.99 Z" fill="#ffefda" />
<path d="M 711.87 354.16 C 711.90 359.83 705.49 364.46 700.41 365.51 C 693.90 366.77 686.09 366.77 680.76 362.25 C 679.09 360.78 676.90 358.57 678.19 356.18 C 679.98 355.70 682.19 356.76 683.97 357.09 C 690.96 359.05 698.16 358.20 704.88 355.68 C 707.30 354.90 709.24 353.63 711.87 354.16 Z" fill="#de4d2c" />
<path d="M 881.76 364.56 C 893.38 376.22 903.47 389.60 912.84 403.11 C 922.81 418.48 931.70 434.84 937.89 452.12 C 945.12 471.39 949.67 491.35 949.90 512.00 C 950.00 520.74 949.64 530.35 946.73 538.67 C 945.97 537.49 945.62 536.27 945.67 535.00 C 945.61 529.32 946.43 523.69 946.25 518.00 C 946.17 505.85 944.02 493.61 941.42 481.74 C 936.17 461.28 928.04 441.36 918.48 422.54 C 908.96 405.67 900.22 389.16 888.08 373.95 C 885.91 370.87 882.73 368.15 881.76 364.56 Z" fill="#fc9473" />
<path d="M 661.00 410.38 C 683.61 409.64 706.20 416.49 725.13 428.75 C 749.10 443.75 766.52 467.36 775.51 494.01 C 780.84 511.03 783.43 530.06 780.27 547.72 L 780.18 548.13 C 775.85 551.18 770.84 552.82 765.92 554.85 C 752.30 560.46 737.53 563.00 722.96 564.63 C 709.64 565.89 696.36 566.45 683.00 565.30 C 654.21 563.69 626.12 558.07 599.68 546.36 C 591.48 542.51 583.23 538.42 575.78 533.24 C 572.37 530.96 569.29 528.26 565.92 525.94 C 565.63 524.61 565.35 523.27 565.10 521.94 C 561.66 499.67 566.59 477.06 577.43 457.47 C 587.09 440.93 602.38 427.59 619.83 419.78 C 632.76 413.73 646.74 410.67 661.00 410.38 Z" fill="#ffefda" />
<path d="M 846.64 431.21 C 848.38 431.83 849.84 432.49 851.01 433.99 C 856.61 440.61 862.01 447.25 866.12 454.94 C 876.33 474.29 881.64 496.07 880.00 518.00 C 879.93 521.70 878.63 525.86 879.65 529.43 C 877.51 533.34 875.24 536.90 871.55 539.54 C 869.63 541.06 866.71 541.15 864.47 540.43 C 861.47 538.51 861.10 535.28 861.60 531.99 C 862.63 526.45 865.52 521.01 867.99 515.98 C 869.17 513.51 870.94 510.80 870.89 508.01 C 871.01 500.40 869.28 492.67 868.10 485.16 C 865.96 475.41 863.23 465.73 859.54 456.44 C 855.96 447.65 851.49 439.35 846.64 431.21 Z" fill="#de4d2c" />
<path d="M 838.47 437.57 C 844.43 446.86 848.98 457.11 852.68 467.49 C 856.65 478.44 858.52 489.65 860.26 501.12 C 860.50 503.94 861.37 507.27 859.77 509.79 C 856.68 515.58 854.09 521.69 852.27 528.00 C 850.47 534.69 851.05 541.75 856.15 546.85 C 858.85 549.72 862.20 550.37 865.89 551.16 C 860.44 558.76 853.70 564.64 846.62 570.63 C 844.76 572.23 844.12 573.53 843.95 575.99 C 844.05 582.70 845.43 589.31 845.68 596.03 C 845.45 594.98 845.21 593.93 844.96 592.88 C 835.29 592.38 825.42 594.04 816.02 596.20 C 807.41 598.25 797.91 602.11 792.62 609.58 C 787.95 616.05 788.17 624.57 789.76 632.03 C 791.67 639.04 794.07 647.29 800.59 651.38 C 805.48 654.40 811.22 657.38 817.03 657.86 C 820.39 658.23 823.71 658.86 827.07 659.22 C 815.35 659.28 803.51 657.17 792.11 654.58 C 787.63 653.54 784.73 651.60 782.28 647.70 C 775.98 637.57 770.44 626.94 764.29 616.70 C 761.01 611.27 757.84 605.77 754.77 600.21 C 753.60 598.38 752.54 596.16 750.02 596.25 C 745.55 596.07 741.09 596.63 736.61 596.31 C 739.68 594.95 742.96 594.37 746.06 593.12 C 759.79 587.42 770.84 576.01 776.19 562.15 C 778.06 557.62 779.20 552.91 780.18 548.13 L 780.27 547.72 C 786.04 545.99 791.33 541.74 796.08 538.12 C 808.84 528.45 819.26 515.70 826.41 501.39 C 834.70 484.21 839.08 465.12 838.19 446.00 C 838.02 443.17 838.03 440.38 838.47 437.57 Z" fill="#de4d2c" />
<path d="M 532.71 486.94 C 535.67 490.32 537.58 494.26 540.16 497.90 C 543.18 502.18 546.14 506.47 549.59 510.42 C 553.83 515.44 558.74 520.98 564.67 523.98 L 565.10 521.94 C 565.35 523.27 565.63 524.61 565.92 525.94 C 567.54 533.51 569.95 541.35 574.00 548.00 C 578.01 554.69 583.10 560.68 589.00 565.78 C 569.62 554.09 553.13 538.54 542.71 518.24 C 538.04 508.38 534.21 497.78 532.71 486.94 Z" fill="#de4d2c" />
<path d="M 565.92 525.94 C 569.29 528.26 572.37 530.96 575.78 533.24 C 583.23 538.42 591.48 542.51 599.68 546.36 C 626.12 558.07 654.21 563.69 683.00 565.30 C 696.36 566.45 709.64 565.89 722.96 564.63 C 737.53 563.00 752.30 560.46 765.92 554.85 C 770.84 552.82 775.85 551.18 780.18 548.13 C 779.20 552.91 778.06 557.62 776.19 562.15 C 770.84 576.01 759.79 587.42 746.06 593.12 C 742.96 594.37 739.68 594.95 736.61 596.31 C 712.73 597.59 688.58 595.73 664.99 591.95 C 651.54 589.68 638.43 587.02 625.54 582.49 C 612.95 578.08 600.37 572.80 589.00 565.78 C 583.10 560.68 578.01 554.69 574.00 548.00 C 569.95 541.35 567.54 533.51 565.92 525.94 Z" fill="#f1cdaf" />
<path d="M 889.31 541.14 C 890.72 545.39 892.20 551.23 896.00 553.99 C 899.42 556.18 902.51 555.05 906.09 554.18 C 904.36 558.88 901.73 564.71 897.13 567.20 C 892.96 569.10 888.32 566.49 887.59 562.03 C 887.23 557.87 887.09 553.39 888.12 549.31 C 889.18 546.66 889.17 543.94 889.31 541.14 Z" fill="#de4d2c" />
<path d="M 918.35 544.84 C 918.56 547.75 918.12 550.35 920.56 552.44 C 922.84 554.83 925.47 554.16 928.46 554.41 C 926.75 557.89 924.14 560.80 920.41 562.11 C 918.28 562.61 916.30 562.27 914.22 561.79 C 915.48 556.08 917.66 550.71 918.35 544.84 Z" fill="#de4d2c" />
<path d="M 589.14 578.23 C 614.97 592.07 643.96 600.17 673.00 603.60 C 674.87 603.79 676.70 604.08 678.54 604.50 C 678.50 607.98 678.17 611.39 677.74 614.84 C 677.11 624.24 676.40 633.65 675.37 643.01 C 674.96 645.74 674.20 648.23 671.56 649.54 C 666.55 651.87 660.67 652.61 655.27 653.58 C 658.41 642.93 657.61 630.70 652.01 621.00 C 647.94 614.49 641.15 612.82 634.32 610.61 C 622.50 607.06 610.99 602.65 600.09 596.82 C 598.17 595.83 596.71 594.55 594.47 594.54 C 592.86 589.06 590.44 583.78 589.14 578.23 Z" fill="#de4d2c" />
<path d="M 844.96 592.88 C 845.21 593.93 845.45 594.98 845.68 596.03 C 846.78 604.80 847.49 613.62 848.44 622.41 C 848.76 625.14 848.62 628.12 851.21 629.78 C 855.62 632.47 860.19 634.34 863.93 638.07 C 867.48 641.57 870.88 646.94 870.42 652.10 C 869.25 655.38 864.99 656.35 861.99 657.13 C 850.77 659.52 838.49 659.54 827.07 659.22 C 823.71 658.86 820.39 658.23 817.03 657.86 C 811.22 657.38 805.48 654.40 800.59 651.38 C 794.07 647.29 791.67 639.04 789.76 632.03 C 788.17 624.57 787.95 616.05 792.62 609.58 C 797.91 602.11 807.41 598.25 816.02 596.20 C 825.42 594.04 835.29 592.38 844.96 592.88 Z" fill="#fe643b" />
<path d="M 600.09 596.82 C 610.99 602.65 622.50 607.06 634.32 610.61 C 641.15 612.82 647.94 614.49 652.01 621.00 C 657.61 630.70 658.41 642.93 655.27 653.58 C 649.22 654.68 643.13 654.64 637.00 655.23 C 623.53 655.65 609.28 656.15 595.98 653.75 C 593.25 653.10 589.55 652.50 587.61 650.32 C 586.33 649.23 586.68 647.04 586.92 645.58 C 588.65 639.51 593.60 634.95 598.94 631.92 C 600.75 630.82 603.13 629.80 604.40 628.07 C 605.16 626.01 604.79 624.01 604.15 621.98 C 601.09 612.77 597.52 603.75 594.47 594.54 C 596.71 594.55 598.17 595.83 600.09 596.82 Z" fill="#fe643b" />
</svg>