<svg xmlns="http://www.w3.org/2000/svg" viewBox="-60 -60 2952 1330" aria-label="Yoinko">
  <title>Yoinko</title>
  <g transform="translate(0 974) scale(1 -1)">
    <path transform="translate(0 0)" d="M189 -214Q140 -192 132.0 -165.5Q124 -139 145 -96L388 448Q409 495 433.0 504.0Q457 513 507 493Q555 471 563.5 446.0Q572 421 553 379L308 -170Q288 -217 263.5 -226.5Q239 -236 189 -214ZM270 6 32 366Q6 406 11.0 432.5Q16 459 59 486Q106 515 131.5 508.5Q157 502 184 461L346 216Z" fill="#1A1A2E"/>
    <path transform="translate(541 0)" d="M280 -18Q234 -18 187.0 0.5Q140 19 100.5 53.5Q61 88 37.5 136.5Q14 185 14 245Q14 300 35.0 348.0Q56 396 92.5 432.5Q129 469 176.5 490.0Q224 511 278 511Q352 511 412.0 475.5Q472 440 508.0 380.0Q544 320 544 246Q544 183 520.0 134.0Q496 85 457.0 51.0Q418 17 371.5 -0.5Q325 -18 280 -18ZM278 165Q293 165 312.5 172.5Q332 180 346.5 198.0Q361 216 361 247Q361 272 350.5 290.0Q340 308 321.0 318.0Q302 328 277 328Q255 328 237.0 317.5Q219 307 208.0 288.5Q197 270 197 246Q197 216 211.0 198.0Q225 180 244.0 172.5Q263 165 278 165Z" fill="#1A1A2E"/>
    <path transform="translate(1064 0)" d="M118 -9Q73 -9 54.0 4.5Q35 18 31.5 39.0Q28 60 28 82V408Q28 430 32.0 450.5Q36 471 55.0 484.5Q74 498 119 498Q164 498 182.5 484.5Q201 471 205.0 450.0Q209 429 209 406V81Q209 59 205.0 38.0Q201 17 182.5 4.0Q164 -9 118 -9Z" fill="#1A1A2E"/>
    <path transform="translate(1266 0)" d="M120 -8Q75 -8 56.0 5.5Q37 19 33.5 40.0Q30 61 30 83V412Q30 434 34.0 454.0Q38 474 57.0 486.5Q76 499 121 499Q162 499 180.5 488.5Q199 478 204.0 463.0Q209 448 208.5 435.5Q208 423 210 420L202 414Q201 429 213.5 444.0Q226 459 246.5 471.5Q267 484 290.5 491.5Q314 499 335 499Q385 499 423.0 480.0Q461 461 486.5 426.5Q512 392 525.0 346.0Q538 300 538 246V82Q538 60 534.0 39.0Q530 18 511.5 5.0Q493 -8 447 -8Q401 -8 382.0 5.5Q363 19 359.0 40.0Q355 61 355 83V246Q355 269 346.5 285.0Q338 301 322.5 309.5Q307 318 284 318Q262 318 245.5 309.0Q229 300 220.0 284.0Q211 268 211 246V82Q211 60 207.0 39.0Q203 18 184.5 5.0Q166 -8 120 -8Z" fill="#1A1A2E"/>
    <path transform="translate(1797 0)" d="M463 156Q500 123 502.5 93.5Q505 64 469 26Q442 -2 422.5 -10.5Q403 -19 384.0 -10.5Q365 -2 339 21L216 136V81Q216 59 212.0 38.0Q208 17 189.5 4.0Q171 -9 125 -9Q80 -9 61.0 4.5Q42 18 38.5 39.0Q35 60 35 82V639Q35 662 39.0 682.5Q43 703 62.0 716.5Q81 730 126 730Q171 730 189.5 716.5Q208 703 212.0 682.0Q216 661 216 638V362L301 445Q325 468 346.0 476.5Q367 485 387.5 477.5Q408 470 431 445Q470 403 468.5 377.0Q467 351 431 315L350 244Z" fill="#1A1A2E"/>
    <path transform="translate(2274 0)" d="M280 -18Q234 -18 187.0 0.5Q140 19 100.5 53.5Q61 88 37.5 136.5Q14 185 14 245Q14 300 35.0 348.0Q56 396 92.5 432.5Q129 469 176.5 490.0Q224 511 278 511Q352 511 412.0 475.5Q472 440 508.0 380.0Q544 320 544 246Q544 183 520.0 134.0Q496 85 457.0 51.0Q418 17 371.5 -0.5Q325 -18 280 -18ZM278 165Q293 165 312.5 172.5Q332 180 346.5 198.0Q361 216 361 247Q361 272 350.5 290.0Q340 308 321.0 318.0Q302 328 277 328Q255 328 237.0 317.5Q219 307 208.0 288.5Q197 270 197 246Q197 216 211.0 198.0Q225 180 244.0 172.5Q263 165 278 165Z" fill="#FF5A36"/>
  </g>
  <g transform="translate(1182 160) scale(9.00)">
    <path d="M 0 -9 Q 1.8 -1.8 9 0 Q 1.8 1.8 0 9 Q -1.8 1.8 -9 0 Q -1.8 -1.8 0 -9 Z" fill="#FF5A36"/>
  </g>
</svg>